Coordinates
version=1
nRows=49
nColumns=12
inDegrees=yes

Units are S.I. units (second, meters, Newtons, ...)
Angles are in degrees

endheader
time	SC_y	SC_z	SC_x	AC_y	AC_z	AC_x	GH_y	GH_z	GH_yy	EL_x	PS_y
       0.0              -52.96          17.56          51.53          46.46         -12.56          -19.3         -177.8          62.45          142.8          133.6          76.64
   0.04087              -52.96          17.56          51.53          46.46         -12.56          -19.3         -177.7          62.44          142.9          133.6          76.65
   0.08175              -52.95          17.56          51.53          46.46         -12.56         -19.29         -177.7          62.43          142.9          133.6          76.66
    0.1226              -52.95          17.55          51.53          46.46         -12.56         -19.29         -177.7          62.42          142.9          133.6          76.67
    0.1635              -52.95          17.55          51.53          46.46         -12.56         -19.29         -177.7          62.41          142.9          133.6          76.68
    0.2044              -52.94          17.55          51.54          46.46         -12.56         -19.29         -177.7           62.4          142.9          133.6           76.7
    0.2452              -52.94          17.54          51.54          46.46         -12.56         -19.28         -177.7          62.39          142.9          133.6          76.71
    0.2861              -52.94          17.54          51.54          46.46         -12.57         -19.28         -177.7          62.38          142.9          133.6          76.72
     0.327              -52.93          17.53          51.54          46.45         -12.57         -19.28         -177.6          62.37          142.9          133.6          76.74
    0.3679              -52.93          17.53          51.55          46.45         -12.57         -19.27         -177.6          62.35          142.9          133.6          76.76
    0.4087              -52.92          17.52          51.55          46.45         -12.57         -19.27         -177.6          62.34          142.9          133.6          76.77
    0.4496              -52.92          17.52          51.56          46.45         -12.57         -19.27         -177.6          62.32          142.9          133.6          76.79
    0.4905              -52.91          17.51          51.56          46.45         -12.57         -19.26         -177.6           62.3          142.9          133.6          76.81
    0.5314              -52.91          17.51          51.56          46.45         -12.57         -19.26         -177.5          62.29          142.9          133.6          76.84
    0.5722               -52.9           17.5          51.57          46.44         -12.58         -19.25         -177.5          62.27          142.9          133.5          76.86
    0.6131              -52.89          17.49          51.57          46.44         -12.58         -19.25         -177.5          62.25          142.9          133.5          76.89
     0.654              -52.88          17.48          51.58          46.44         -12.58         -19.24         -177.4          62.22          142.9          133.5          76.91
    0.6949              -52.88          17.48          51.59          46.44         -12.58         -19.24         -177.4           62.2          142.9          133.5          76.95
    0.7357              -52.87          17.47          51.59          46.43         -12.58         -19.23         -177.4          62.17          142.9          133.5          76.98
    0.7766              -52.86          17.45           51.6          46.43         -12.59         -19.22         -177.3          62.14          142.9          133.5          77.02
    0.8175              -52.85          17.44          51.61          46.43         -12.59         -19.21         -177.3          62.11          143.0          133.5          77.06
    0.8584              -52.83          17.43          51.62          46.42         -12.59         -19.21         -177.2          62.07          143.0          133.5           77.1
    0.8992              -52.82          17.42          51.63          46.42          -12.6          -19.2         -177.2          62.03          143.0          133.4          77.15
    0.9401               -52.8           17.4          51.64          46.41          -12.6         -19.19         -177.1          61.98          143.0          133.4          77.21
     0.981              -52.79          17.38          51.65          46.41          -12.6         -19.17         -177.0          61.94          143.0          133.4          77.27
     1.022              -52.77          17.36          51.66           46.4         -12.61         -19.16         -177.0          61.88          143.0          133.4          77.33
     1.063              -52.75          17.34          51.68          46.39         -12.61         -19.14         -176.9          61.82          143.0          133.4          77.41
     1.104              -52.72          17.32          51.69          46.39         -12.62         -19.13         -176.8          61.75          143.1          133.3           77.5
     1.144               -52.7          17.29          51.71          46.38         -12.63         -19.11         -176.7          61.67          143.1          133.3          77.59
     1.185              -52.67          17.26          51.74          46.37         -12.63         -19.09         -176.5          61.58          143.1          133.3           77.7
     1.226              -52.63          17.22          51.76          46.36         -12.64         -19.06         -176.4          61.48          143.2          133.2          77.83
     1.267              -52.59          17.18          51.79          46.34         -12.65         -19.03         -176.2          61.36          143.2          133.2          77.97
     1.308              -52.55          17.13          51.82          46.33         -12.66          -19.0         -176.0          61.22          143.2          133.1          78.14
     1.349              -52.49          17.08          51.86          46.31         -12.68         -18.96         -175.8          61.07          143.3          133.0          78.33
      1.39              -52.43          17.01           51.9          46.29         -12.69         -18.92         -175.5          60.88          143.3          133.0          78.55
     1.431              -52.36          16.94          51.96          46.27         -12.71         -18.86         -175.2          60.67          143.4          132.9          78.82
     1.471              -52.27          16.84          52.02          46.24         -12.73          -18.8         -174.9          60.41          143.5          132.8          79.14
     1.512              -52.17          16.74           52.1          46.21         -12.76         -18.73         -174.4           60.1          143.6          132.6          79.51
     1.553              -52.04           16.6          52.19          46.17         -12.79         -18.63         -173.9          59.72          143.7          132.5          79.97
     1.594              -51.89          16.44           52.3          46.12         -12.83         -18.52         -173.3          59.27          143.9          132.3          80.53
     1.635              -51.69          16.24          52.43          46.05         -12.88         -18.39         -172.5           58.7          144.0          132.0          81.22
     1.676              -51.46           16.0           52.6          45.98         -12.94         -18.21         -171.5           58.0          144.3          131.7          82.08
     1.717              -51.16          15.68          52.82          45.88         -13.02          -18.0         -170.2          57.11          144.5          131.4          83.17
     1.758              -50.78          15.29          53.09          45.76         -13.11         -17.72         -168.6          55.99          144.9          130.9          84.55
     1.798              -50.29          14.78          53.44           45.6         -13.24         -17.37         -166.6          54.55          145.4          130.3          86.31
     1.839              -49.66          14.13          53.89           45.4          -13.4         -16.92         -163.9           52.7          145.9          129.5          88.57
      1.88              -48.87          13.29          54.47          45.14          -13.6         -16.35         -160.6          50.33          146.7          128.5          91.47
     1.921              -47.86          12.24          55.19          44.82         -13.85         -15.62         -156.4          47.36          147.6          127.2           95.1
     1.962              -46.64          10.97          56.07          44.43         -14.16         -14.74         -151.3          43.74          148.8          125.7          99.54
